<?xml version="1.0" encoding="utf-8"?>
<svg viewBox="4.965 10.026 10.424 85.617" width="10.424" height="85.617" xmlns="http://www.w3.org/2000/svg">
  <path d="M 10.553 47.155 L 10.553 40.498 L 11.434 40.498 L 11.434 43.232 L 14.894 43.232 L 14.894 40.498 L 15.775 40.498 L 15.775 47.155 L 14.894 47.155 L 14.894 44.017 L 11.434 44.017 L 11.434 47.155 Z M 19.835 47.155 L 19.835 40.498 L 24.648 40.498 L 24.648 41.283 L 20.716 41.283 L 20.716 43.322 L 24.398 43.322 L 24.398 44.103 L 20.716 44.103 L 20.716 46.369 L 24.802 46.369 L 24.802 47.155 Z M 28.563 47.155 L 28.563 40.498 L 29.444 40.498 L 29.444 46.369 L 32.723 46.369 L 32.723 47.155 Z M 36.007 47.155 L 36.007 40.498 L 38.518 40.498 Q 39.181 40.498 39.531 40.561 Q 40.021 40.643 40.353 40.872 Q 40.684 41.102 40.887 41.515 Q 41.089 41.928 41.089 42.423 Q 41.089 43.272 40.548 43.86 Q 40.008 44.449 38.596 44.449 L 36.888 44.449 L 36.888 47.155 Z M 36.888 43.663 L 38.609 43.663 Q 39.463 43.663 39.822 43.345 Q 40.18 43.027 40.18 42.451 Q 40.18 42.033 39.969 41.735 Q 39.758 41.438 39.413 41.342 Q 39.19 41.283 38.591 41.283 L 36.888 41.283 Z M 46.495 47.269 L 48.425 40.384 L 49.079 40.384 L 47.154 47.269 Z M 53.717 47.155 L 56.274 40.498 L 57.223 40.498 L 59.948 47.155 L 58.944 47.155 L 58.168 45.139 L 55.384 45.139 L 54.653 47.155 Z M 55.638 44.421 L 57.895 44.421 L 57.2 42.578 Q 56.882 41.738 56.728 41.197 Q 56.601 41.837 56.369 42.469 Z M 62.679 47.155 L 62.679 40.498 L 65.177 40.498 Q 65.94 40.498 66.401 40.7 Q 66.862 40.902 67.123 41.322 Q 67.384 41.742 67.384 42.201 Q 67.384 42.628 67.152 43.005 Q 66.921 43.381 66.453 43.613 Q 67.057 43.79 67.382 44.217 Q 67.706 44.644 67.706 45.225 Q 67.706 45.693 67.509 46.095 Q 67.311 46.497 67.021 46.715 Q 66.73 46.932 66.292 47.044 Q 65.854 47.155 65.218 47.155 Z M 63.56 43.295 L 65 43.295 Q 65.586 43.295 65.84 43.218 Q 66.176 43.118 66.346 42.886 Q 66.517 42.655 66.517 42.305 Q 66.517 41.974 66.358 41.722 Q 66.199 41.47 65.904 41.377 Q 65.608 41.283 64.891 41.283 L 63.56 41.283 Z M 63.56 46.369 L 65.218 46.369 Q 65.645 46.369 65.817 46.338 Q 66.122 46.283 66.326 46.156 Q 66.53 46.029 66.662 45.786 Q 66.794 45.543 66.794 45.225 Q 66.794 44.853 66.603 44.578 Q 66.412 44.303 66.074 44.192 Q 65.736 44.081 65.1 44.081 L 63.56 44.081 Z M 71.231 43.913 Q 71.231 42.255 72.121 41.318 Q 73.011 40.38 74.419 40.38 Q 75.341 40.38 76.081 40.82 Q 76.821 41.261 77.209 42.049 Q 77.597 42.836 77.597 43.836 Q 77.597 44.848 77.189 45.647 Q 76.78 46.447 76.031 46.858 Q 75.282 47.269 74.414 47.269 Q 73.474 47.269 72.734 46.814 Q 71.994 46.36 71.612 45.575 Q 71.231 44.789 71.231 43.913 Z M 72.139 43.926 Q 72.139 45.13 72.786 45.822 Q 73.433 46.515 74.41 46.515 Q 75.404 46.515 76.047 45.815 Q 76.689 45.116 76.689 43.831 Q 76.689 43.018 76.414 42.412 Q 76.14 41.806 75.611 41.472 Q 75.082 41.138 74.423 41.138 Q 73.488 41.138 72.813 41.781 Q 72.139 42.423 72.139 43.926 Z M 85.682 40.498 L 86.563 40.498 L 86.563 44.344 Q 86.563 45.348 86.336 45.938 Q 86.109 46.528 85.516 46.898 Q 84.923 47.269 83.961 47.269 Q 83.025 47.269 82.43 46.946 Q 81.836 46.624 81.581 46.013 Q 81.327 45.402 81.327 44.344 L 81.327 40.498 L 82.208 40.498 L 82.208 44.34 Q 82.208 45.207 82.369 45.618 Q 82.53 46.029 82.923 46.251 Q 83.316 46.474 83.884 46.474 Q 84.855 46.474 85.269 46.033 Q 85.682 45.593 85.682 44.34 Z M 92.134 47.155 L 92.134 41.283 L 89.941 41.283 L 89.941 40.498 L 95.217 40.498 L 95.217 41.283 L 93.015 41.283 L 93.015 47.155 Z" transform="matrix(0, -1, 1, 0, -33.752262, 105.451172)" style="fill: rgb(51, 51, 51); white-space: pre;"/>
</svg>